<svg width="258" height="258" viewBox="0 0 258 258" fill="none" xmlns="http://www.w3.org/2000/svg">
<rect width="256" height="256" transform="translate(1 1)" fill="white"/>
<path d="M137.57 75.6067L150.674 62.8667L196.466 107.317L183.29 120.057C179.546 117.63 175.346 116.638 170.69 117.082C166.034 117.525 162.05 119.357 158.738 122.577L153.338 127.827C150.074 131.047 148.214 134.908 147.758 139.412C147.302 143.915 148.322 148.01 150.818 151.697L137.642 164.437L120.29 147.567L100.13 167.097C97.5381 169.617 92.6541 173.233 85.4781 177.947C78.3021 182.66 74.0661 184.387 72.7701 183.127C71.4741 181.867 73.2501 177.725 78.0981 170.702C82.9461 163.678 86.6421 158.93 89.1861 156.457L109.274 136.927L91.9221 119.987L105.098 107.247C108.842 109.673 113.042 110.665 117.698 110.222C122.354 109.778 126.314 107.947 129.578 104.727L134.978 99.4767C138.29 96.3033 140.174 92.4533 140.63 87.9267C141.086 83.4 140.066 79.2933 137.57 75.6067V75.6067Z" fill="black"/>
<path fill-rule="evenodd" clip-rule="evenodd" d="M99.6066 84.6066C105.464 78.7487 113.909 77.6954 118.467 82.2538L171.414 135.201C175.973 139.76 174.919 148.204 169.062 154.062C163.204 159.919 154.76 160.973 150.201 156.414L97.2538 103.467C92.6954 98.9086 93.7487 90.4645 99.6066 84.6066Z" fill="white"/>
<line x1="75.6066" y1="61" x2="195.501" y2="180.894" stroke="#F90000" stroke-width="15" stroke-linecap="round"/>
<circle cx="129" cy="129" r="90" stroke="#F90000" stroke-width="12"/>
<rect x="0.5" y="0.5" width="257" height="257" stroke="black"/>
</svg>
