<svg width="258" height="258" viewBox="0 0 258 258" fill="none" xmlns="http://www.w3.org/2000/svg">
<rect width="256" height="256" transform="translate(1 1)" fill="white"/>
<path d="M137.927 69.65L151.577 56L199.277 103.625L185.552 117.275C181.652 114.675 177.277 113.613 172.427 114.088C167.577 114.563 163.427 116.525 159.977 119.975L154.352 125.6C150.952 129.05 149.015 133.188 148.54 138.013C148.065 142.838 149.127 147.225 151.727 151.175L138.002 164.825L119.927 146.75L98.9271 167.675C96.2271 170.375 91.1396 174.25 83.6646 179.3C76.1896 184.35 71.7771 186.2 70.4271 184.85C69.0771 183.5 70.9271 179.063 75.9771 171.538C81.0271 164.013 84.8771 158.925 87.5271 156.275L108.452 135.35L90.3771 117.2L104.102 103.55C108.002 106.15 112.377 107.213 117.227 106.738C122.077 106.263 126.202 104.3 129.602 100.85L135.227 95.225C138.677 91.825 140.64 87.7 141.115 82.85C141.59 78 140.527 73.6 137.927 69.65Z" fill="black"/>
<path fill-rule="evenodd" clip-rule="evenodd" d="M95.8897 90.7476C99.7949 86.8423 106.656 87.3719 111.215 91.9303L164.162 144.878C168.72 149.436 169.25 156.297 165.345 160.203C161.439 164.108 154.578 163.578 150.02 159.02L97.0725 106.072C92.514 101.514 91.9844 94.6528 95.8897 90.7476Z" fill="white"/>
<line x1="69.2348" y1="64.2495" x2="191.25" y2="186.265" stroke="black" stroke-width="12" stroke-linecap="round"/>
<circle cx="129" cy="129" r="90" stroke="black" stroke-width="12"/>
<rect x="0.5" y="0.5" width="257" height="257" stroke="black"/>
</svg>
